<svg width="50" height="36" viewBox="0 0 50 36" fill="none" xmlns="http://www.w3.org/2000/svg">
<path d="M25 0.954559C13.6364 0.954559 3.93182 8.02274 0 18C3.93182 27.9773 13.6364 35.0455 25 35.0455C36.3636 35.0455 46.0682 27.9773 50 18C46.0682 8.02274 36.3636 0.954559 25 0.954559ZM25 29.3636C18.7273 29.3636 13.6364 24.2727 13.6364 18C13.6364 11.7273 18.7273 6.63638 25 6.63638C31.2727 6.63638 36.3636 11.7273 36.3636 18C36.3636 24.2727 31.2727 29.3636 25 29.3636ZM25 11.1818C21.2273 11.1818 18.1818 14.2273 18.1818 18C18.1818 21.7727 21.2273 24.8182 25 24.8182C28.7727 24.8182 31.8182 21.7727 31.8182 18C31.8182 14.2273 28.7727 11.1818 25 11.1818Z" fill="#F9F9F9"/>
</svg>
